<svg width="639" height="197" viewBox="0 0 639 197" fill="none" xmlns="http://www.w3.org/2000/svg">
<path d="M262.878 20.564L263.84 29.962H262.582C262.212 28.112 261.694 25.374 258.734 22.932C255.256 20.12 250.816 19.01 246.302 19.01C234.388 19.01 225.804 27.668 225.804 40.692C225.804 54.456 235.128 64.964 246.894 64.964C248.892 64.964 252.592 64.594 256.514 62.226V52.162C256.514 47.278 254.664 47.13 250.594 47.056V45.428C253.184 45.428 258.142 45.576 259.992 45.576C262.212 45.576 264.358 45.428 267.688 45.428V47.056C264.58 47.13 262.878 47.426 262.878 51.052V61.042C263.248 61.486 263.396 61.56 264.062 62.004V63.114C255.848 66.296 247.116 66.962 243.934 66.962C226.84 66.962 218.552 53.494 218.552 42.172C218.552 28.926 229.504 17.012 245.118 17.012C252.74 17.012 259.104 19.232 262.878 20.564ZM320.672 64.52V66.148C318.378 66 314.086 66 313.79 66C312.606 66 310.386 66.148 308.906 66.148C304.392 60.968 302.172 58.304 292.774 43.282H286.188V56.38C286.188 64.52 287.964 64.52 293.218 64.52V66.148C291.96 66.148 286.78 66 283.006 66C279.158 66 276.79 66.074 273.682 66.148V64.52C278.27 64.52 279.824 64.446 279.824 56.528V27.816C279.824 21.156 279.084 19.676 273.904 19.528V17.9C275.162 17.9 277.678 18.048 281.378 18.048C285.152 18.048 290.036 17.9 291.442 17.9C295.364 17.9 299.878 18.048 303.726 20.638C308.684 23.968 308.832 27.964 308.832 29.814C308.832 38.324 302.172 40.766 299.212 41.876C303.06 48.092 308.98 56.676 312.976 60.82C316.232 64.224 318.97 64.446 320.672 64.52ZM286.188 20.268V40.84C287.446 41.062 288.704 41.284 290.48 41.284C299.508 41.284 302.246 34.18 302.246 30.258C302.246 24.708 297.806 19.898 290.924 19.898C290.332 19.898 288.704 19.898 286.188 20.268ZM344.74 17.9V19.528C341.336 19.528 338.894 19.676 338.894 23.894V59.414C338.894 64.224 341.558 64.52 344.74 64.52V66.148C340.966 66.074 338.598 66.074 335.712 66C332.9 65.926 329.644 66.074 326.462 66.148V64.52C330.532 64.52 332.53 64.076 332.53 60.376V26.558C332.53 19.528 331.05 19.528 326.462 19.528V17.9C331.124 17.974 333.566 18.048 335.934 18.048C338.302 18.048 340.818 17.9 344.74 17.9ZM369.77 17.9V19.528C366.07 19.528 363.554 19.602 363.554 24.634V56.972C363.554 61.93 365.7 63.706 372.878 63.706C384.422 63.706 386.494 61.93 388.566 55.344L389.824 55.64C388.788 60.968 388.64 61.264 387.53 66.148C383.608 66.074 375.986 66 368.512 66C361.112 66 353.786 66.148 350.456 66.148V64.52C354.304 64.52 357.19 64.002 357.19 58.822V26.114C357.19 19.528 353.934 19.528 351.122 19.528V17.9C353.564 17.9 357.042 18.048 360.446 18.048C363.85 18.048 367.106 17.9 369.77 17.9ZM413.652 17.9V19.528C409.952 19.528 407.436 19.602 407.436 24.634V56.972C407.436 61.93 409.582 63.706 416.76 63.706C428.304 63.706 430.376 61.93 432.448 55.344L433.706 55.64C432.67 60.968 432.522 61.264 431.412 66.148C427.49 66.074 419.868 66 412.394 66C404.994 66 397.668 66.148 394.338 66.148V64.52C398.186 64.52 401.072 64.002 401.072 58.822V26.114C401.072 19.528 397.816 19.528 395.004 19.528V17.9C397.446 17.9 400.924 18.048 404.328 18.048C407.732 18.048 410.988 17.9 413.652 17.9ZM457.165 17.9V19.528C453.761 19.528 451.319 19.676 451.319 23.894V59.414C451.319 64.224 453.983 64.52 457.165 64.52V66.148C453.391 66.074 451.023 66.074 448.137 66C445.325 65.926 442.069 66.074 438.887 66.148V64.52C442.957 64.52 444.955 64.076 444.955 60.376V26.558C444.955 19.528 443.475 19.528 438.887 19.528V17.9C443.549 17.974 445.991 18.048 448.359 18.048C450.727 18.048 453.243 17.9 457.165 17.9ZM241.122 86.902H242.232L255.848 125.53C258.808 133.892 259.918 135.52 263.174 135.52H264.58V137.148C261.916 137.074 258.734 137 255.478 137C252.296 137 249.188 137.074 246.672 137.148V135.52H248.744C250.52 135.52 251.63 134.706 251.63 132.93C251.63 132.116 251.408 131.302 251.26 131.006L247.042 119.166H230.836L230.17 120.794C228.986 123.606 227.136 130.192 227.136 132.634C227.136 134.41 228.394 135.52 230.54 135.52H233.352V137.148C229.43 137.074 227.358 137 225.286 137C223.214 137 221.068 137.074 217.072 137.148V135.52C220.994 135.446 222.696 134.484 225.508 126.714L236.164 97.114C237.052 94.746 237.348 92.452 237.126 90.01C239.198 88.9 239.79 88.456 241.122 86.902ZM246.08 116.428L238.828 95.486H238.68L231.65 116.428H246.08ZM288.796 137.148C285.54 137.148 280.508 137 278.436 137C274.662 137 271.406 137.148 269.408 137.148V135.52C273.848 135.446 275.846 134.706 275.846 128.934V95.782C275.846 91.046 273.034 90.602 269.408 90.528V88.9C273.182 88.974 275.624 89.048 277.992 89.048C280.36 89.048 282.58 88.9 284.948 88.9C290.128 88.9 293.236 89.418 294.79 89.936C301.228 92.082 303.152 96.818 303.152 99.926C303.152 107.77 294.272 110.064 291.09 110.878V111.026C297.676 111.618 302.486 112.728 305.816 117.686C306.63 118.944 307.74 121.016 307.74 124.124C307.74 129.748 304.41 133.374 299.674 135.372C294.79 137.444 290.424 137.148 288.796 137.148ZM282.21 91.12V110.36C287.538 110.36 290.202 110.064 292.2 108.658C294.42 107.104 296.418 104.514 296.418 99.704C296.418 97.262 295.826 94.894 293.976 93.266C291.904 91.416 288.574 90.898 286.354 90.898C285.688 90.898 284.208 90.898 282.21 91.12ZM282.21 112.358V129.97C282.21 133.966 285.392 135.15 289.536 135.15C297.824 135.15 300.932 129.452 300.932 124.642C300.932 121.386 299.6 116.576 296.122 114.356C294.42 113.32 291.83 112.21 286.576 112.21C285.762 112.21 284.06 112.284 282.21 112.358ZM341.485 137.962C325.353 137.962 315.955 125.16 315.955 112.802C315.955 98.668 327.795 88.012 341.041 88.012C354.509 88.012 365.979 98.742 365.979 112.876C365.979 127.972 353.325 137.962 341.485 137.962ZM340.449 90.01C327.425 90.01 323.207 102.072 323.207 111.174C323.207 123.828 330.755 135.964 342.077 135.964C352.215 135.964 358.727 126.862 358.727 114.8C358.727 102.146 351.401 90.01 340.449 90.01ZM419.241 91.564L420.203 100.962H418.945C418.575 99.112 418.057 96.374 415.097 93.932C411.619 91.12 407.179 90.01 402.665 90.01C390.751 90.01 382.167 98.668 382.167 111.692C382.167 125.456 391.491 135.964 403.257 135.964C405.255 135.964 408.955 135.594 412.877 133.226V123.162C412.877 118.278 411.027 118.13 406.957 118.056V116.428C409.547 116.428 414.505 116.576 416.355 116.576C418.575 116.576 420.721 116.428 424.051 116.428V118.056C420.943 118.13 419.241 118.426 419.241 122.052V132.042C419.611 132.486 419.759 132.56 420.425 133.004V134.114C412.211 137.296 403.479 137.962 400.297 137.962C383.203 137.962 374.915 124.494 374.915 113.172C374.915 99.926 385.867 88.012 401.481 88.012C409.103 88.012 415.467 90.232 419.241 91.564ZM453.725 86.902H454.835L468.451 125.53C471.411 133.892 472.521 135.52 475.777 135.52H477.183V137.148C474.519 137.074 471.337 137 468.081 137C464.899 137 461.791 137.074 459.275 137.148V135.52H461.347C463.123 135.52 464.233 134.706 464.233 132.93C464.233 132.116 464.011 131.302 463.863 131.006L459.645 119.166H443.439L442.773 120.794C441.589 123.606 439.739 130.192 439.739 132.634C439.739 134.41 440.997 135.52 443.143 135.52H445.955V137.148C442.033 137.074 439.961 137 437.889 137C435.817 137 433.671 137.074 429.675 137.148V135.52C433.597 135.446 435.299 134.484 438.111 126.714L448.767 97.114C449.655 94.746 449.951 92.452 449.729 90.01C451.801 88.9 452.393 88.456 453.725 86.902ZM458.683 116.428L451.431 95.486H451.283L444.253 116.428H458.683ZM482.603 88.9C484.749 88.9 490.003 89.048 492.075 89.048C495.701 89.048 501.769 88.9 505.395 88.9C520.121 88.9 530.999 99.852 530.999 112.876C530.999 123.754 524.413 131.376 516.495 134.706C511.093 137 503.915 137.148 500.511 137.148C495.997 137.148 492.001 137 490.521 137C487.191 137 484.157 137.148 482.381 137.148V135.52C486.525 135.52 488.967 135.076 488.967 129.082V95.634C488.967 90.824 485.637 90.528 482.603 90.528V88.9ZM495.331 91.342V128.86C495.331 133.374 497.255 135.15 503.619 135.15C510.501 135.15 515.533 132.486 518.863 128.416C522.193 124.346 523.747 118.944 523.747 113.616C523.747 107.77 521.749 102.072 517.975 97.854C514.201 93.562 508.577 90.898 501.177 90.898C499.031 90.898 497.551 91.046 495.331 91.342ZM566.445 137.962C550.313 137.962 540.915 125.16 540.915 112.802C540.915 98.668 552.755 88.012 566.001 88.012C579.469 88.012 590.939 98.742 590.939 112.876C590.939 127.972 578.285 137.962 566.445 137.962ZM565.409 90.01C552.385 90.01 548.167 102.072 548.167 111.174C548.167 123.828 555.715 135.964 567.037 135.964C577.175 135.964 583.687 126.862 583.687 114.8C583.687 102.146 576.361 90.01 565.409 90.01ZM625.405 97.04H624.147C623.703 95.412 622.297 90.01 615.193 90.01C609.421 90.01 606.239 93.932 606.239 98.298C606.239 104.44 611.271 107.03 616.155 109.472C623.111 112.95 628.143 116.132 628.143 123.976C628.143 132.634 620.669 137.962 611.345 137.962C605.203 137.962 601.947 136.186 600.467 135.372C599.875 129.674 599.653 128.342 599.283 125.678H600.467C601.281 128.046 603.797 135.964 612.307 135.964C618.523 135.964 622.223 131.672 622.223 126.566C622.223 120.498 617.265 117.76 612.455 115.392C607.645 113.024 600.911 109.62 600.911 100.74C600.911 91.934 608.385 88.012 616.081 88.012C618.227 88.012 619.633 88.16 624.443 88.9C624.665 90.898 624.887 92.23 625.405 97.04Z" fill="#D1B787"/>
<path d="M244.926 187H229.581V159.873H244.926V163.621H234.016V171.006H244.239V174.717H234.016V183.233H244.926V187ZM272.11 181.155C272.11 183.159 271.38 184.699 269.92 185.775C268.461 186.839 266.37 187.371 263.649 187.371C260.915 187.371 258.72 186.957 257.062 186.128V182.361C259.474 183.475 261.719 184.031 263.797 184.031C266.482 184.031 267.824 183.221 267.824 181.601C267.824 181.081 267.675 180.648 267.378 180.302C267.082 179.955 266.593 179.597 265.913 179.226C265.232 178.854 264.286 178.434 263.074 177.964C260.711 177.049 259.109 176.133 258.268 175.218C257.439 174.302 257.025 173.115 257.025 171.655C257.025 169.899 257.73 168.538 259.14 167.573C260.563 166.596 262.492 166.107 264.929 166.107C267.341 166.107 269.624 166.596 271.776 167.573L270.366 170.857C268.152 169.942 266.29 169.484 264.781 169.484C262.48 169.484 261.33 170.14 261.33 171.451C261.33 172.094 261.626 172.639 262.22 173.084C262.826 173.529 264.138 174.142 266.154 174.921C267.848 175.576 269.079 176.176 269.846 176.721C270.613 177.265 271.182 177.896 271.553 178.613C271.924 179.318 272.11 180.166 272.11 181.155ZM292.466 183.846C293.53 183.846 294.593 183.679 295.657 183.345V186.629C295.175 186.839 294.55 187.012 293.783 187.148C293.029 187.297 292.243 187.371 291.427 187.371C287.295 187.371 285.23 185.194 285.23 180.84V169.781H282.428V167.852L285.434 166.256L286.918 161.914H289.608V166.479H295.453V169.781H289.608V180.766C289.608 181.817 289.868 182.596 290.388 183.104C290.92 183.598 291.612 183.846 292.466 183.846ZM322.229 187L321.617 184.31H321.394C320.788 185.262 319.922 186.01 318.796 186.555C317.683 187.099 316.409 187.371 314.974 187.371C312.488 187.371 310.632 186.753 309.408 185.516C308.183 184.279 307.571 182.405 307.571 179.894V166.479H311.968V179.133C311.968 180.704 312.29 181.885 312.933 182.677C313.576 183.456 314.585 183.846 315.958 183.846C317.788 183.846 319.13 183.301 319.984 182.213C320.85 181.112 321.283 179.275 321.283 176.702V166.479H325.662V187H322.229ZM346.778 187.371C344.218 187.371 342.22 186.443 340.785 184.588C339.35 182.732 338.633 180.129 338.633 176.776C338.633 173.412 339.357 170.796 340.804 168.928C342.263 167.048 344.28 166.107 346.853 166.107C349.549 166.107 351.603 167.103 353.013 169.095H353.235C353.025 167.623 352.92 166.46 352.92 165.606V158.129H357.299V187H353.885L353.124 184.31H352.92C351.522 186.351 349.475 187.371 346.778 187.371ZM347.947 183.846C349.741 183.846 351.046 183.345 351.862 182.343C352.679 181.328 353.099 179.689 353.124 177.426V176.813C353.124 174.228 352.704 172.391 351.862 171.303C351.021 170.214 349.704 169.67 347.91 169.67C346.376 169.67 345.195 170.295 344.366 171.544C343.538 172.781 343.123 174.55 343.123 176.851C343.123 179.127 343.525 180.865 344.329 182.064C345.133 183.252 346.339 183.846 347.947 183.846ZM375.874 187H371.513V166.479H375.874V187ZM371.254 161.042C371.254 160.263 371.464 159.663 371.884 159.242C372.317 158.822 372.93 158.611 373.721 158.611C374.488 158.611 375.082 158.822 375.503 159.242C375.935 159.663 376.152 160.263 376.152 161.042C376.152 161.784 375.935 162.372 375.503 162.805C375.082 163.225 374.488 163.436 373.721 163.436C372.93 163.436 372.317 163.225 371.884 162.805C371.464 162.372 371.254 161.784 371.254 161.042ZM408.309 176.702C408.309 180.054 407.449 182.671 405.73 184.551C404.01 186.431 401.617 187.371 398.549 187.371C396.632 187.371 394.937 186.938 393.465 186.072C391.993 185.206 390.861 183.963 390.069 182.343C389.278 180.722 388.882 178.842 388.882 176.702C388.882 173.375 389.735 170.777 391.443 168.909C393.15 167.041 395.555 166.107 398.66 166.107C401.629 166.107 403.979 167.066 405.711 168.983C407.443 170.888 408.309 173.461 408.309 176.702ZM393.372 176.702C393.372 181.44 395.123 183.809 398.623 183.809C402.087 183.809 403.818 181.44 403.818 176.702C403.818 172.014 402.074 169.67 398.586 169.67C396.755 169.67 395.426 170.276 394.597 171.488C393.78 172.701 393.372 174.438 393.372 176.702ZM436.199 194.57C434.987 194.57 433.973 194.416 433.156 194.106V190.377C434.195 190.637 435.098 190.767 435.865 190.767C438.29 190.767 439.502 189.233 439.502 186.165V159.873H443.955V186.017C443.955 188.787 443.293 190.903 441.97 192.362C440.659 193.834 438.735 194.57 436.199 194.57ZM472.976 187L472.364 184.31H472.141C471.535 185.262 470.669 186.01 469.544 186.555C468.43 187.099 467.156 187.371 465.721 187.371C463.235 187.371 461.38 186.753 460.155 185.516C458.93 184.279 458.318 182.405 458.318 179.894V166.479H462.716V179.133C462.716 180.704 463.037 181.885 463.68 182.677C464.324 183.456 465.332 183.846 466.705 183.846C468.536 183.846 469.878 183.301 470.731 182.213C471.597 181.112 472.03 179.275 472.03 176.702V166.479H476.409V187H472.976ZM501.014 166.107C501.892 166.107 502.616 166.169 503.185 166.293L502.758 170.356C502.14 170.208 501.496 170.134 500.828 170.134C499.084 170.134 497.668 170.703 496.579 171.841C495.503 172.979 494.965 174.457 494.965 176.275V187H490.605V166.479H494.019L494.594 170.097H494.817C495.497 168.872 496.381 167.901 497.47 167.184C498.571 166.466 499.752 166.107 501.014 166.107ZM519.347 187H514.987V166.479H519.347V187ZM514.764 163.974V163.51C515.469 162.644 516.193 161.679 516.935 160.615C517.69 159.551 518.284 158.642 518.717 157.888H523.782V158.277C523.139 159.032 522.174 160.009 520.887 161.209C519.613 162.396 518.537 163.318 517.659 163.974H514.764ZM540.501 187.371C537.941 187.371 535.943 186.443 534.508 184.588C533.073 182.732 532.356 180.129 532.356 176.776C532.356 173.412 533.079 170.796 534.527 168.928C535.986 167.048 538.003 166.107 540.575 166.107C543.272 166.107 545.325 167.103 546.736 169.095H546.958C546.748 167.623 546.643 166.46 546.643 165.606V158.129H551.022V187H547.608L546.847 184.31H546.643C545.245 186.351 543.198 187.371 540.501 187.371ZM541.67 183.846C543.464 183.846 544.769 183.345 545.585 182.343C546.402 181.328 546.822 179.689 546.847 177.426V176.813C546.847 174.228 546.426 172.391 545.585 171.303C544.744 170.214 543.427 169.67 541.633 169.67C540.099 169.67 538.918 170.295 538.089 171.544C537.26 172.781 536.846 174.55 536.846 176.851C536.846 179.127 537.248 180.865 538.052 182.064C538.856 183.252 540.062 183.846 541.67 183.846ZM569.596 187H565.236V166.479H569.596V187ZM564.976 161.042C564.976 160.263 565.187 159.663 565.607 159.242C566.04 158.822 566.652 158.611 567.444 158.611C568.211 158.611 568.805 158.822 569.225 159.242C569.658 159.663 569.875 160.263 569.875 161.042C569.875 161.784 569.658 162.372 569.225 162.805C568.805 163.225 568.211 163.436 567.444 163.436C566.652 163.436 566.04 163.225 565.607 162.805C565.187 162.372 564.976 161.784 564.976 161.042ZM592.105 187.371C589 187.371 586.637 186.468 585.017 184.662C583.409 182.844 582.605 180.24 582.605 176.851C582.605 173.399 583.446 170.746 585.128 168.891C586.823 167.035 589.266 166.107 592.457 166.107C594.622 166.107 596.57 166.509 598.302 167.313L596.985 170.82C595.142 170.103 593.62 169.744 592.42 169.744C588.87 169.744 587.095 172.101 587.095 176.813C587.095 179.114 587.534 180.846 588.412 182.009C589.303 183.159 590.602 183.734 592.309 183.734C594.251 183.734 596.088 183.252 597.82 182.287V186.091C597.04 186.549 596.205 186.876 595.315 187.074C594.436 187.272 593.366 187.371 592.105 187.371ZM628.826 176.702C628.826 180.054 627.966 182.671 626.247 184.551C624.527 186.431 622.134 187.371 619.066 187.371C617.149 187.371 615.454 186.938 613.982 186.072C612.51 185.206 611.378 183.963 610.587 182.343C609.795 180.722 609.399 178.842 609.399 176.702C609.399 173.375 610.253 170.777 611.96 168.909C613.667 167.041 616.073 166.107 619.178 166.107C622.146 166.107 624.497 167.066 626.228 168.983C627.96 170.888 628.826 173.461 628.826 176.702ZM613.889 176.702C613.889 181.44 615.64 183.809 619.14 183.809C622.604 183.809 624.336 181.44 624.336 176.702C624.336 172.014 622.592 169.67 619.103 169.67C617.273 169.67 615.943 170.276 615.114 171.488C614.298 172.701 613.889 174.438 613.889 176.702Z" fill="#D1B787"/>
<path d="M173 3C173 7.41828 169.418 11 165 11H39C34.5817 11 31 7.41828 31 3V0H173V3Z" fill="#D2B983"/>
<path d="M173 3C173 7.41828 169.418 11 165 11H39C34.5817 11 31 7.41828 31 3V0H173V3Z" stroke="#D2B983"/>
<path d="M31 194C31 189.582 34.5817 186 39 186L165 186C169.418 186 173 189.582 173 194L173 197L31 197L31 194Z" fill="#D2B983"/>
<path d="M31 194C31 189.582 34.5817 186 39 186L165 186C169.418 186 173 189.582 173 194L173 197L31 197L31 194Z" stroke="#D2B983"/>
<path d="M165 18C165 22.4183 161.418 26 157 26H49C44.5817 26 41 22.4183 41 18V14H165V18Z" fill="#D2B983"/>
<path d="M165 18C165 22.4183 161.418 26 157 26H49C44.5817 26 41 22.4183 41 18V14H165V18Z" stroke="#D2B983"/>
<path d="M40 179C40 174.582 43.5817 171 48 171L155 171C159.418 171 163 174.582 163 179L163 183L40 183L40 179Z" fill="#D2B983"/>
<path d="M40 179C40 174.582 43.5817 171 48 171L155 171C159.418 171 163 174.582 163 179L163 183L40 183L40 179Z" stroke="#D2B983"/>
<path d="M152 167H53V136.359C58.4023 135.42 64.0886 134.191 70 132.604V148C70 150.761 72.2386 153 75 153C77.7614 153 80 150.761 80 148V129.633C84.8889 128.036 89.8988 126.186 95 124.049V148C95 150.761 97.2386 153 100 153C102.761 153 105 150.761 105 148V119.531C109.957 117.127 114.98 114.441 120.04 111.44C120.7 111.049 121.353 110.656 122 110.265V148C122 150.761 124.239 153 127 153C129.761 153 132 150.761 132 148V103.877C139.686 98.6878 146.303 93.5267 152 88.4951V167ZM152 61.3047C145.342 67.6506 138.721 73.3692 132 78.5557V50C132 47.2386 129.761 45 127 45C124.239 45 122 47.2386 122 50V85.8281C116.466 89.6122 110.824 93.0796 105 96.2803V50C105 47.2386 102.761 45 100 45C97.2386 45 95 47.2386 95 50V101.432C90.1619 103.764 85.1745 105.947 80 108.005V50C80 47.2386 77.7614 45 75 45C72.2386 45 70 47.2386 70 50V111.746C64.5583 113.661 58.9045 115.465 53 117.181V32H152V61.3047Z" fill="#D2B983"/>
<path d="M183 34C183 34 180 71.2389 118 108C56 144.761 0 133.5 0 133.5C88.3246 116.884 129.631 96.7313 183 34Z" fill="#D2B983"/>
<path d="M183 34C183 34 180 71.2389 118 108C56 144.761 0 133.5 0 133.5C88.3246 116.884 129.631 96.7313 183 34Z" stroke="#464B69"/>
</svg>
